<svg id="Capa_1" enable-background="new 0 0 284.544 284.544" height="512" viewBox="0 0 284.544 284.544" width="512" xmlns="http://www.w3.org/2000/svg"><path d="m99.591 56.908c-2.618 0-4.742-2.125-4.742-4.742 0-2.618 2.125-4.742 4.742-4.742 13.71 0 32.826-19.311 39.039-26.751 1.679-2.011 4.666-2.281 6.677-.602s2.281 4.662.607 6.677c-2.57 3.086-25.727 30.16-46.323 30.16z"/><path d="m199.18 156.496h-113.816c-2.618 0-4.742-2.125-4.742-4.742v-75.877c0-2.618 2.125-4.742 4.742-4.742h113.816c2.618 0 4.742 2.125 4.742 4.742v75.877c0 2.618-2.125 4.742-4.742 4.742zm-109.074-9.484h104.331v-66.393h-104.331z"/><path d="m128.045 137.527h-18.969c-2.618 0-4.742-2.125-4.742-4.742v-37.939c0-2.618 2.125-4.742 4.742-4.742h18.969c2.618 0 4.742 2.125 4.742 4.742v37.938c0 2.619-2.124 4.743-4.742 4.743zm-14.227-9.485h9.485v-28.453h-9.485z"/><path d="m175.468 137.527h-18.969c-2.618 0-4.742-2.125-4.742-4.742v-37.939c0-2.618 2.125-4.742 4.742-4.742h18.969c2.618 0 4.742 2.125 4.742 4.742v37.938c0 2.619-2.124 4.743-4.742 4.743zm-14.227-9.485h9.485v-28.453h-9.485z"/><path d="m85.364 128.042h-80.619c-2.618 0-4.742-2.125-4.742-4.742v-18.969c0-2.618 2.125-4.742 4.742-4.742h80.619c2.618 0 4.742 2.125 4.742 4.742v18.969c0 2.618-2.124 4.742-4.742 4.742zm-75.877-9.484h71.135v-9.485h-71.135z"/><path d="m279.799 128.042h-80.619c-2.618 0-4.742-2.125-4.742-4.742v-18.969c0-2.618 2.125-4.742 4.742-4.742h80.619c2.618 0 4.742 2.125 4.742 4.742v18.969c0 2.618-2.124 4.742-4.742 4.742zm-75.877-9.484h71.135v-9.485h-71.135z"/><path d="m109.076 118.558h-23.712c-2.618 0-4.742-2.125-4.742-4.742 0-2.618 2.125-4.742 4.742-4.742h23.712c2.618 0 4.742 2.125 4.742 4.742s-2.125 4.742-4.742 4.742z"/><path d="m156.499 118.558h-28.454c-2.618 0-4.742-2.125-4.742-4.742 0-2.618 2.125-4.742 4.742-4.742h28.454c2.618 0 4.742 2.125 4.742 4.742s-2.125 4.742-4.742 4.742z"/><path d="m199.18 118.558h-23.712c-2.618 0-4.742-2.125-4.742-4.742 0-2.618 2.125-4.742 4.742-4.742h23.712c2.618 0 4.742 2.125 4.742 4.742s-2.125 4.742-4.742 4.742z"/><path d="m209.328 284.544c-.854 0-1.717-.104-2.58-.313-3.69-.911-6.62-3.746-7.64-7.393-9.579-34.126-32.328-91.887-56.837-91.887s-47.257 57.761-56.832 91.887c-1.024 3.647-3.95 6.478-7.64 7.393-3.708.906-7.488-.185-10.101-2.945-22.161-23.384-20.354-70.822-20.264-72.828-.009-16.001 4.439-35.031 8.171-48.144 2.883-10.134.982-20.999-5.217-29.801-.939-1.333-1.84-2.665-2.703-3.998-.047-.076-.294-.484-.337-.56-.839-1.465-.92-3.424-.071-4.885s2.319-2.513 4.007-2.513h29.336v-9.485h-38.966c-1.944 0-3.694-1.186-4.41-2.997-5.828-14.725-8.788-30.408-8.788-46.603v-12.05c0-37.511 40.329-47.422 61.65-47.422 27.017 0 45.071 11.794 52.165 17.442 7.095-5.648 25.149-17.442 52.166-17.442 21.321 0 61.65 9.911 61.65 47.423v12.05c0 16.195-2.959 31.878-8.792 46.603-.711 1.812-2.461 2.997-4.406 2.997h-38.968v9.485h29.336c1.731 0 3.329.944 4.159 2.466.835 1.518.768 3.372-.161 4.832l-.394.654c-.863 1.337-1.769 2.67-2.708 4.007-6.203 8.802-8.105 19.666-5.217 29.801 3.732 13.108 8.18 32.139 8.18 48.343.085 1.802 1.892 49.239-20.269 72.624-2.004 2.12-4.697 3.259-7.519 3.259zm-67.056-109.078c35.477 0 59.459 75.63 65.966 98.811.142.512.555.688.782.745.379.095.692.005.939-.256 19.429-20.496 17.694-65.439 17.675-65.894-.005-15.313-4.259-33.424-7.825-45.958-3.348-11.775-1.646-24.295 4.647-34.87h-25.276c-2.618 0-4.742-2.125-4.742-4.742v-18.969c0-2.618 2.125-4.742 4.742-4.742h40.438c4.638-12.738 6.985-26.215 6.985-40.115v-12.05c0-37.403-50.041-37.934-52.17-37.939-30.669 0-48.637 17.414-48.817 17.589-1.854 1.835-4.856 1.835-6.696-.009-.171-.166-18.139-17.58-48.813-17.58-2.125.005-52.165.536-52.165 37.939v12.05c0 13.9 2.347 27.377 6.985 40.115h40.438c2.618 0 4.742 2.125 4.742 4.742v18.967c0 2.618-2.125 4.742-4.742 4.742h-25.282c6.293 10.575 8 23.095 4.647 34.87-3.566 12.534-7.82 30.64-7.82 45.749-.024.659-1.717 45.645 17.67 66.098.251.266.569.346.944.261.232-.057.64-.228.782-.745 6.507-23.179 30.489-98.809 65.966-98.809z"/></svg>