<svg id="Layer_1" height="512" viewBox="0 0 512 512" width="512" xmlns="http://www.w3.org/2000/svg" xmlns:xlink="http://www.w3.org/1999/xlink" data-name="Layer 1"><linearGradient id="linear-gradient" gradientUnits="userSpaceOnUse" x1="256.034" x2="256.034" y1="18.711" y2="482.401"><stop offset="0" stop-color="#00efd1"/><stop offset="1" stop-color="#00acea"/></linearGradient><linearGradient id="linear-gradient-2" x1="362.5" x2="362.5" xlink:href="#linear-gradient" y1="18.711" y2="482.401"/><path d="m364.545 9.432c-.583 0-1.166 0-1.749.027a118.6 118.6 0 0 0 -106.765 70.9c-2.405 1.118-4.825 2.267-7.238 3.462a61.986 61.986 0 0 1 -54.747 0c-29.692-14.715-58.3-23.141-82.731-24.367-26.115-1.307-47.573 5.627-62.015 20.063-32.12 32.135-25.478 96.742 17.335 168.608a22.6 22.6 0 0 1 3.165 11.568 22.834 22.834 0 0 1 -2.254 9.846 169.04 169.04 0 0 0 -16.8 73.929c0 28.193 6.732 59.514 18.953 88.2 12.917 30.31 31.12 55.082 51.258 69.753a6 6 0 0 0 9.412-3.648c6.548-32.056 16.857-51.284 32.443-60.511 14.007-8.293 31.2-8.18 51.108-8.043 4.955.033 10.049.033 15 0 40.313-.279 69.45-.468 83.55 68.554a6 6 0 0 0 9.412 3.648c20.137-14.671 38.341-39.443 51.258-69.753 12.221-28.682 18.953-60 18.953-88.2a169.041 169.041 0 0 0 -16.805-73.929 22.681 22.681 0 0 1 .914-21.415c.534-.9 1.047-1.79 1.57-2.686a118.374 118.374 0 0 0 -13.227-236.006zm15.555 334.036c0 26.613-6.39 56.263-17.993 83.492-10.47 24.569-24.48 45.12-40.018 58.9-17.172-69.15-54.168-68.9-93.243-68.64-4.9.033-9.939.033-14.843 0-39.076-.263-76.071-.509-93.243 68.64-15.538-13.775-29.548-34.326-40.018-58.9-11.6-27.229-17.993-56.879-17.993-83.492a157.149 157.149 0 0 1 15.615-68.722 34.669 34.669 0 0 0 -1.416-32.763c-19.464-32.672-31.533-64.4-34.9-91.75-3.343-27.069 2.101-48.589 15.735-62.233 24.425-24.41 73.37-21.953 130.935 6.574a74.1 74.1 0 0 0 61.676 1.715 118.291 118.291 0 0 0 113.382 149.88 34.686 34.686 0 0 0 .7 28.574 157.144 157.144 0 0 1 15.624 68.725zm-15.55-109.286a106.108 106.108 0 0 1 -83.027-39.866 106.362 106.362 0 0 1 81.53-172.859c.067 0 .135-.219.2-.223.352-.016.7-.234 1.056-.234h.233c58.658 0 106.377 47.936 106.377 106.591s-47.719 106.591-106.374 106.591z" fill="url(#linear-gradient)"/><path d="m405 123h-36v-37a6 6 0 0 0 -12 0v37h-37a6 6 0 0 0 0 12h37v36a6 6 0 0 0 12 0v-36h36a6 6 0 0 0 0-12z" fill="url(#linear-gradient-2)"/></svg>