<svg height="512pt" viewBox="-30 0 512 512.00074" width="512pt" xmlns="http://www.w3.org/2000/svg"><path d="m311.042969 512c-35.863281 0-65.039063-29.175781-65.039063-65.039062v-79.625c0-11.042969-8.984375-20.027344-20.027344-20.027344-11.042968 0-20.027343 8.984375-20.027343 20.027344v79.625c0 35.863281-29.179688 65.039062-65.042969 65.039062s-65.039062-29.175781-65.039062-65.039062v-150.421876c-47.667969-29.527343-76.519532-81.671874-75.8554692-138.1875.5000002-42.835937 17.8125002-82.957031 48.7460932-112.96875 30.957032-30.039062 71.628907-46.144531 114.519532-45.3554682 24.429687.4492182 47.8125 6.2617182 69.492187 17.2773442l4.375 2.222656 25.96875 51.328125 57.265625-12.570313 40.332032 55.894532 64.160156-44.40625 7.960937 14.738281c12.199219 22.589843 18.808594 48.121093 19.109375 73.839843.664063 56.515626-28.1875 108.660157-75.855468 138.191407v150.417969c0 35.863281-29.179688 65.039062-65.042969 65.039062zm-85.066407-194.691406c27.585938 0 50.027344 22.441406 50.027344 50.027344v79.625c0 19.320312 15.71875 35.039062 35.039063 35.039062 19.320312 0 35.042969-15.71875 35.042969-35.039062v-167.953126l7.820312-4.261718c42.535156-23.175782 68.605469-67.640625 68.035156-116.042969-.179687-15.222656-3.078125-30.363281-8.472656-44.558594l-59.875 41.441407-46.019531-63.773438-60.734375 13.332031-31.96875-63.183593c-16.382813-7.589844-33.898438-11.601563-52.148438-11.9375-34.851562-.621094-67.894531 12.457031-93.074218 36.890624-25.15625 24.40625-39.230469 57.003907-39.640626 91.789063-.566406 48.40625 25.503907 92.871094 68.035157 116.042969l7.824219 4.265625v167.949219c0 19.320312 15.71875 35.039062 35.039062 35.039062s35.039062-15.71875 35.039062-35.039062v-79.625c0-27.585938 22.445313-50.027344 50.03125-50.027344zm0 0"/></svg>