<?xml version="1.0" encoding="iso-8859-1"?>
<!-- Generator: Adobe Illustrator 19.0.0, SVG Export Plug-In . SVG Version: 6.00 Build 0)  -->
<svg version="1.1" id="Capa_1" xmlns="http://www.w3.org/2000/svg" xmlns:xlink="http://www.w3.org/1999/xlink" x="0px" y="0px"
	 viewBox="0 0 498.416 498.416" style="enable-background:new 0 0 498.416 498.416;" xml:space="preserve">
<g>
	<g>
		<path d="M241.728,143.792L176,130.648v-17.44h-32v-16H64c-35.288,0-64,28.712-64,64c0,32.576,24.48,59.488,56,63.448v201.72
			c0,12.592,10.24,22.832,22.832,22.832H80v32H64v16h80v-16h-16v-32h1.168c12.592,0,22.832-10.24,22.832-22.832
			c0-8.696-4.832-16.528-12.624-20.424L120,396.264v-7.744l24-24v-86.624l-24-24v-28.688h24v-16h32v-17.44l65.728-13.144
			C250,176.968,256,169.64,256,161.208S250,145.448,241.728,143.792z M112,481.208H96v-32h16V481.208z M132.216,420.264
			c2.336,1.16,3.784,3.504,3.784,6.112c0,3.76-3.064,6.832-6.832,6.832H78.832c-3.768,0-6.832-3.072-6.832-6.832V225.208h32v40H88
			v16h16v16H88v16h16v16H88v16h16v16H88v16h16v28.944L132.216,420.264z M128,284.52v73.376l-8,8V276.52L128,284.52z M160,193.208
			h-16v-16h-16v32H64c-26.472,0-48-21.528-48-48s21.528-48,48-48h64v48h16v-32h16V193.208z M238.584,162.936L176,175.448v-28.48
			l62.584,12.512c0.816,0.168,1.416,0.896,1.416,1.728C240,162.04,239.4,162.768,238.584,162.936z"/>
	</g>
</g>
<g>
	<g>
		<path d="M203.52,304.96l-29.936,112.248h324.832L468.48,304.96c-3.728-13.984-16.448-23.752-30.92-23.752h-14.824
			c7.344-18.368,16.736-35.848,28.096-52.256C480.384,186.264,496,136.264,496,84.352c0-45.848-37.296-83.144-83.144-83.144
			c-16.6,0-33.152,5.248-47.864,15.168c-8.68,5.864-18.44,8.832-28.992,8.832s-20.312-2.968-28.992-8.832
			c-14.712-9.92-31.264-15.168-47.864-15.168c-34.464,0-64.96,21.256-77.32,52.696l-0.832-0.696L170.72,65.472L208,96.712
			l27.488-23.024l8.688,34.768l35.776-2.464l-13.368,33.24l30.36,19.04l-30.36,19.04l13.368,33.248l-35.776-2.464l-8.688,34.768
			L208,219.84l-37.28,31.24l10.272,12.264L208,240.712l36.808,30.84l0.096-0.376c1.488,3.32,2.928,6.656,4.28,10.032H234.44
			C219.968,281.208,207.256,290.976,203.52,304.96z M256.448,224.976l47.872,3.304l-17.912-44.52l40.648-25.488l-40.648-25.488
			l17.912-44.512l-47.872,3.296L244.8,44.992L208,75.84l-13.072-10.952c8.512-28.184,34.544-47.68,64.216-47.68
			c13.4,0,26.856,4.304,38.92,12.44C309.44,37.32,322.2,41.208,336,41.208s26.56-3.888,37.944-11.56
			c12.056-8.136,25.512-12.44,38.912-12.44c37.024,0,67.144,30.12,67.144,67.144c0,48.64-14.64,95.496-42.328,135.496
			c-19.296,27.872-33.256,58.68-41.48,91.584l-8.56,34.232c-1.104,4.44-5.08,7.544-9.664,7.544c-5.496,0-9.968-4.472-9.968-9.968
			V241.208c0-17.648-14.352-32-32-32s-32,14.352-32,32V343.24c0,5.496-4.472,9.968-9.968,9.968c-4.584,0-8.56-3.104-9.672-7.544
			l-8.56-34.232c-5.592-22.384-13.992-44-24.88-64.328L256.448,224.976z M352,241.208v40h-32v-40c0-8.824,7.176-16,16-16
			C344.824,225.208,352,232.384,352,241.208z M255.008,297.208c1.952,5.968,3.752,11.992,5.272,18.096l8.56,34.232
			c2.888,11.584,13.256,19.672,25.192,19.672c14.32,0,25.968-11.648,25.968-25.968v-46.032h32v46.032
			c0,14.32,11.648,25.968,25.968,25.968c11.936,0,22.304-8.088,25.192-19.672l8.56-34.232c1.528-6.12,3.328-12.136,5.28-18.096
			h20.56c7.24,0,13.592,4.88,15.456,11.872l24.568,92.128H194.416l24.568-92.128c1.856-6.992,8.216-11.872,15.456-11.872H255.008z"
			/>
	</g>
</g>
<g>
	<g>
		<path d="M382.888,42.904c-13.864,9.36-30.072,14.304-46.888,14.304c-16.816,0-33.024-4.944-46.888-14.296l-8.944,13.264
			C296.68,67.32,315.992,73.208,336,73.208c20.016,0,39.328-5.888,55.84-17.04L382.888,42.904z"/>
	</g>
</g>
<g>
</g>
<g>
</g>
<g>
</g>
<g>
</g>
<g>
</g>
<g>
</g>
<g>
</g>
<g>
</g>
<g>
</g>
<g>
</g>
<g>
</g>
<g>
</g>
<g>
</g>
<g>
</g>
<g>
</g>
</svg>
