<svg height="512pt" viewBox="0 -16 512 512" width="512pt" xmlns="http://www.w3.org/2000/svg"><path d="m512 179.976562h-76c-13.367188 0-25.921875 3.535157-36.804688 9.691407 3.75-15.023438 8.835938-31.101563 15.386719-48.777344 6.308594-17.023437 7.992188-35.703125 4.871094-54.019531-7.023437-41.253906-39.652344-75.789063-81.25-84.550782-29.058594-6.125-58.371094.007813-82.203125 16.84375-23.828125-16.835937-53.140625-22.964843-82.203125-16.84375-40.949219 8.628907-74.113281 42.644532-81.25 84.550782-3.121094 18.316406-1.4375 36.996094 4.871094 54.019531 6.546875 17.675781 11.636719 33.753906 15.382812 48.777344-10.878906-6.15625-23.433593-9.6875-36.800781-9.6875h-76v300h512zm-389.882812-88.066406c5-29.339844 28.792968-54.109375 57.863281-60.234375 45.886719-9.667969 71.207031 23.910157 76.019531 26.847657 4.8125-2.933594 30.191406-36.503907 76.019531-26.847657 29.070313 6.125 52.863281 30.894531 57.863281 60.230469 2.265626 13.320312 1.109376 26.296875-3.433593 38.5625-17.601563 47.515625-25.449219 84.859375-25.449219 121.09375v3.417969c0 36.21875-25.808594 66.523437-60 73.492187v-28.492187h30v-30h-30v-30h30v-30h-30v-15c0-24.8125-20.1875-45-45-45s-45 20.1875-45 45v15h-30v30h30v30h-30v30h30v28.492187c-34.191406-6.96875-60-37.273437-60-73.492187v-3.417969c0-36.230469-7.851562-73.578125-25.449219-121.09375-4.542969-12.265625-5.699219-25.242188-3.433593-38.558594zm118.882812 268.066406h30v23.789063l-15 15-15-15zm30-30h-30v-30h30zm0-120h-30v-15c0-8.269531 6.730469-15 15-15s15 6.730469 15 15zm0 30v30h-30v-30zm211 210h-452v-240h46c24.8125 0 45 20.1875 45 45 0 52.808594 39.183594 96.625 90 103.925782v37.289062l45 45 45-45v-37.289062c50.816406-7.300782 90-51.117188 90-103.925782 0-24.8125 20.1875-45 45-45h46zm0 0"/></svg>