<?xml version="1.0" encoding="iso-8859-1"?>
<!-- Generator: Adobe Illustrator 16.0.0, SVG Export Plug-In . SVG Version: 6.00 Build 0)  -->
<!DOCTYPE svg PUBLIC "-//W3C//DTD SVG 1.1//EN" "http://www.w3.org/Graphics/SVG/1.1/DTD/svg11.dtd">
<svg version="1.1" id="Capa_1" xmlns="http://www.w3.org/2000/svg" xmlns:xlink="http://www.w3.org/1999/xlink" x="0px" y="0px"
	 width="406.503px" height="406.503px" viewBox="0 0 406.503 406.503" style="enable-background:new 0 0 406.503 406.503;"
	 xml:space="preserve">
<g>
	<g>
		<path d="M375.456,45.433c-21.033-23.549-49.984-36.519-81.521-36.519c-24.643,0-51.291,14.704-70.75,25.44
			c-7.596,4.191-17.033,9.398-19.936,9.702c-2.896-0.299-12.293-5.498-19.852-9.681c-19.422-10.745-46.016-25.461-70.83-25.461
			c-31.535,0-60.486,12.97-81.52,36.519C11.025,67.849,0,97.357,0,128.521c0,44.627,16.034,108.116,42.891,169.829
			c11.948,27.457,24.663,51.177,36.768,68.595c14.332,20.621,26.583,30.645,37.455,30.645c4.77,0,13.511-2.038,18.443-15.677
			c4.892-13.526,9.293-29.064,13.953-45.514c12.4-43.771,27.832-98.242,52.961-98.242h1.563c11.217,0,21.215,9.52,30.565,29.103
			c9.193,19.251,16.174,44.82,22.925,69.548c4.463,16.349,8.678,31.789,13.409,45.07c4.83,13.553,13.47,15.58,18.188,15.583h0.008
			c10.813-0.001,23.053-10.178,37.416-31.112c12.076-17.603,24.818-41.56,36.846-69.279
			c26.996-62.207,43.111-125.215,43.111-168.548C406.503,97.357,395.478,67.849,375.456,45.433z M349.05,290.846
			c-11.471,26.434-24.041,50.105-35.396,66.656c-13.172,19.202-18.631,24.271-23.364,24.253c-2.304-0.009-3.536-2.066-4.626-5.127
			c-4.533-12.721-8.674-27.885-13.057-43.94c-6.933-25.392-14.103-51.647-23.896-72.166c-12.209-25.569-26.824-38-44.676-38h-1.563
			c-17.19,0-31.461,12.33-43.63,37.692c-9.764,20.351-17.191,46.567-24.375,71.922c-4.582,16.176-8.91,31.454-13.613,44.458
			c-0.894,2.473-2.534,4.801-3.74,5.359c-2.253,1.043-8.449-0.672-24.616-23.935c-11.364-16.352-23.89-39.758-35.269-65.909
			c-25.656-58.952-41.594-121.636-41.594-163.59c0-51.107,36.258-103.972,96.934-103.972c17.889,0,39.248,8.926,55.423,19.203
			c3.892,2.473,9.981,7.361,14.812,10.992c4.844,3.628,10.676,7.802,17.354,11.733c3.334,1.968,6.819,4.003,10.596,5.607
			c40.512,17.196,75.94,7.805,75.383,6.102c-0.524-1.605-25.488-1.675-49.104-7.929c-12.562-3.326-22.776-9.408-22.99-11.418
			c-0.176-1.655,9.23-7.715,17.943-12.342c19.475-10.342,41.336-21.948,61.95-21.948c60.677,0,96.935,52.865,96.935,103.972
			C390.87,169.204,374.845,231.402,349.05,290.846z"/>
		<path d="M111.549,53.041c-8.716,0-17.927,1.804-26.643,5.218c-28.113,11.012-44.711,35.986-37.001,55.67
			c5.062,12.92,19.747,20.945,38.327,20.945c8.714,0,17.927-1.804,26.642-5.217c13.594-5.324,24.93-14.03,31.92-24.512
			c7.023-10.53,8.828-21.596,5.082-31.158C144.814,61.067,130.127,53.041,111.549,53.041z"/>
	</g>
</g>
<g>
</g>
<g>
</g>
<g>
</g>
<g>
</g>
<g>
</g>
<g>
</g>
<g>
</g>
<g>
</g>
<g>
</g>
<g>
</g>
<g>
</g>
<g>
</g>
<g>
</g>
<g>
</g>
<g>
</g>
</svg>
