<svg height="494pt" viewBox="0 -132 494 494" width="494pt" xmlns="http://www.w3.org/2000/svg" xmlns:xlink="http://www.w3.org/1999/xlink"><linearGradient id="a" gradientUnits="userSpaceOnUse" x1="247" x2="247" y1="-92.9207" y2="335.8683"><stop offset="0" stop-color="#00efd1"/><stop offset="1" stop-color="#00acea"/></linearGradient><path d="m461.527344 91.523438c3.886718-13.71875 6.644531-27.730469 8.253906-41.894532 1.433594-13.222656-3.082031-26.398437-12.328125-35.960937-9.242187-9.566407-22.257813-14.527344-35.519531-13.546875-7.199219.539062-34.570313 7.367187-43.5 9.632812-2.367188-1.230468-4.65625-2.601562-6.855469-4.109375-3.976563-2.625-7.734375-5.105469-12.699219-5.5-13.347656-1.066406-26.46875 3.894531-35.769531 13.523438-1.628906 1.6875-3.125 3.496093-4.472656 5.410156-9.054688-12.921875-24.246094-20.125-39.980469-18.953125-7.203125.535156-34.566406 7.363281-43.5 9.628906-2.367188-1.226562-4.65625-2.597656-6.855469-4.109375-3.976562-2.625-7.734375-5.105469-12.699219-5.5-15.816406-1.242187-31.113281 5.957031-40.238281 18.933594-9.054687-12.921875-24.246093-20.125-39.980469-18.953125-7.203124.535156-34.570312 7.363281-43.5 9.628906-2.371093-1.226562-4.660156-2.597656-6.859374-4.109375-3.972657-2.625-7.730469-5.105469-12.699219-5.5-13.308594-1.050781-26.394531 3.882813-35.699219 13.457031-9.308594 9.570313-13.867188 22.792969-12.441406 36.066407 1.605468 14.15625 4.363281 28.15625 8.242187 41.863281-19.027343 4.734375-32.3906248 21.804688-32.425781 41.414062v89.21875c.0117188 2.113282.867188 4.140626 2.375 5.625 1.507812 1.488282 3.546875 2.308594 5.664062 2.289063h477.921876c2.117187.019531 4.15625-.800781 5.664062-2.289063 1.507812-1.484374 2.363281-3.511718 2.375-5.625v-89.21875c-.035156-19.625-13.425781-36.703124-32.472656-41.421874zm-414.804688-8.445313h34.277344v6.378906c-.097656 2.03125.660156 4.007813 2.089844 5.457031 1.425781 1.445313 3.394531 2.230469 5.425781 2.164063h27.671875c2.058594.078125 4.0625-.691406 5.542969-2.132813 1.476562-1.441406 2.296875-3.425781 2.269531-5.488281v-6.378906h36.6875c-5.640625 21.441406-13.957031 42.085937-24.75 61.449219-3.882812-13.976563-11.46875-26.648438-21.949219-36.679688l-1.175781-1.125c-5.824219-5.554687-15.042969-5.355468-20.628906.441406l-.96875 1.007813c-9.59375 10-16.457032 22.296875-19.925782 35.710937l-.058593.222657c-10.675781-19.242188-18.910157-39.742188-24.507813-61.027344zm50.277344-2v-12h11v12zm78.34375 9.085937.03125.113282h-.066406zm14.65625-7.085937h35v6.378906c0 4.417969 3.746094 7.621094 8.164062 7.621094h27.671876c4.417968 0 8.164062-3.199219 8.164062-7.621094v-6.378906h34.960938c-5.640626 21.441406-13.953126 42.085937-24.746094 61.449219-3.886719-13.976563-11.472656-26.648438-21.953125-36.679688l-1.171875-1.125c-5.828125-5.554687-15.042969-5.359375-20.628906.4375l-.972657 1.011719c-9.59375 9.996094-16.453125 22.292969-19.921875 35.707031l-.058594.222656c-10.675781-19.242187-18.910156-39.742187-24.507812-61.023437zm51-2v-12h12v12zm77.617188 9.085937.03125.113282h-.0625zm18.847656 7.195313c-.117188-1.03125-.4375-2.03125-.9375-2.941406-1.21875-3.90625-2.304688-7.6875-3.257813-11.339844h36.730469v6.378906c-.027344 2.0625.792969 4.046875 2.269531 5.488281 1.480469 1.441407 3.484375 2.210938 5.542969 2.132813h27.671875c2.03125.066406 4-.71875 5.425781-2.164063 1.429688-1.449218 2.1875-3.425781 2.089844-5.457031v-6.378906h34.234375c-5.640625 21.441406-13.953125 42.085937-24.746094 61.449219-3.886719-13.976563-11.46875-26.648438-21.953125-36.679688l-1.171875-1.125c-5.824219-5.554687-15.042969-5.359375-20.628906.4375l-.96875 1.011719c-9.59375 10-16.457031 22.296875-19.925781 35.710937l-.058594.222657c-8.265625-14.890625-15.070312-30.546875-20.316406-46.746094zm48.535156-16.28125v-12h11v12zm-51.398438-56.269531c5.988282-6.199219 14.433594-9.394532 23.023438-8.710938.847656.066406 3.226562 1.636719 5.132812 2.898438 8.046876 5.316406 21.507813 14.210937 50.761719 10.558594 2.847657-.355469 5.285157-2.207032 6.390625-4.851563 1.105469-2.648437.710938-5.683594-1.035156-7.957031 1.910156-.367188 3.390625-.601563 4.25-.667969 8.519531-.625 16.878906 2.5625 22.820312 8.707031 5.9375 6.144532 8.839844 14.605469 7.921876 23.101563-.570313 5.210937-1.492188 11.710937-2.957032 19.195312h-37.910156v-6.320312c.097656-2.035157-.65625-4.023438-2.082031-5.480469s-3.394531-2.253906-5.433594-2.203125h-27.671875c-2.066406-.0625-4.070312.71875-5.546875 2.171875-1.476563 1.449219-2.296875 3.441406-2.265625 5.511719v6.316406h-40.398438c-1.464843-7.46875-2.382812-13.957031-2.957031-19.15625v-.058594c.144531-2.070312.144531-4.148437 0-6.222656.707031-6.339844 3.503907-12.261719 7.957031-16.832031zm-143.277343 0c5.988281-6.199219 14.4375-9.394532 23.027343-8.714844.847657.070312 3.222657 1.636719 5.132813 2.902344 8.046875 5.316406 21.519531 14.210937 50.761719 10.558594 2.84375-.355469 5.285156-2.207032 6.390625-4.855469 1.105469-2.644531.710937-5.679688-1.035157-7.957031 1.910157-.363282 3.386719-.597657 4.246094-.664063 15.457032-1.132813 29.039063 10.15625 30.75 25.558594-.148437 2.074219-.148437 4.15625 0 6.230469v.019531c-.574218 5.207031-1.492187 11.710937-2.960937 19.191406h-38.636719v-6.316406c-.050781-2.105469-.941406-4.105469-2.476562-5.546875-1.535157-1.445313-3.582032-2.214844-5.6875-2.136719h-27.671876c-2.105468-.078125-4.152343.691406-5.6875 2.136719-1.535156 1.441406-2.425781 3.441406-2.476562 5.546875v6.316406h-38.675781c-1.464844-7.46875-2.382813-13.957031-2.953125-19.15625 0-.019531 0-.035156 0-.050781.144531-2.078125.144531-4.160156 0-6.234375.703125-6.339844 3.503906-12.261719 7.949218-16.828125zm-143.273438 0c5.988281-6.199219 14.433594-9.394532 23.027344-8.714844.847656.070312 3.222656 1.636719 5.132813 2.902344 8.046874 5.316406 21.5 14.210937 50.757812 10.558594 2.847656-.355469 5.285156-2.207032 6.390625-4.855469 1.105469-2.644531.710937-5.679688-1.035156-7.957031 1.914062-.363282 3.390625-.597657 4.25-.664063 15.445312-1.214844 29.03125 10.136719 30.585937 25.550781-.144531 2.066406-.15625 4.152344-.15625 6.242188v.015625c0 5.207031-1.175781 11.710937-2.644531 19.191406h-40.359375v-6.316406c.03125-2.070313-.789062-4.0625-2.265625-5.511719-1.476563-1.453125-3.480469-2.234375-5.546875-2.171875h-27.671875c-2.039063-.050781-4.007813.746094-5.433594 2.203125s-2.179687 3.441406-2.082031 5.480469v6.316406h-37.949219c-1.464843-7.46875-2.382812-13.957031-2.953125-19.15625-.941406-8.507813 1.976563-16.984375 7.949219-23.113281zm429.949219 189.269531h-462v-81.132813c.023438-12.617187 8.863281-23.496093 21.207031-26.101562 6.636719 19.363281 15.382813 37.9375 26.082031 55.386719 2.375 3.863281 6.828126 5.9375 11.316407 5.265625 4.484375-.675782 8.132812-3.964844 9.269531-8.355469l2.90625-11.261719c2.78125-10.753906 8.28125-20.613281 15.972656-28.628906l.167969.160156c8.410156 8.046875 14.496094 18.21875 17.605469 29.4375l2.953125 10.652344c1.195312 4.347656 4.867187 7.566406 9.339843 8.175781 4.46875.609375 8.871094-1.503906 11.183594-5.375 10.972656-17.636719 19.824219-36.507812 26.371094-56.222656h9.933594c6.707031 19.578125 15.515625 38.371094 26.265625 56.054687 2.351562 3.878907 6.796875 5.972657 11.289062 5.3125 4.488281-.65625 8.148438-3.9375 9.289063-8.328124l2.90625-11.246094c2.78125-10.753906 8.28125-20.609375 15.96875-28.621094h.007812l.164063.164062c8.414062 8.046876 14.496093 18.21875 17.609375 29.4375l2.953125 10.652344c1.191406 4.347656 4.867187 7.566406 9.335937 8.179688 4.46875.609375 8.871094-1.507813 11.183594-5.378906 10.972656-17.640626 19.824219-36.511719 26.367188-56.226563h9.929687c6.710937 19.578125 15.519531 38.371094 26.269531 56.050781 2.351563 3.878906 6.800782 5.972656 11.289063 5.316406s8.148437-3.9375 9.289062-8.328124l2.902344-11.246094c2.78125-10.753906 8.28125-20.609375 15.96875-28.621094h.007813l.167968.164062c8.410156 8.046876 14.492188 18.21875 17.605469 29.4375l2.953125 10.648438c1.199219 4.335938 4.855469 7.546875 9.308594 8.179688 4.457031.628906 8.859375-1.445313 11.214844-5.28125 10.75-17.496094 19.53125-36.128907 26.191406-55.554688 12.363281 2.585938 21.226562 13.472656 21.253906 26.101562zm0 0" fill="url(#a)"/></svg>