<?xml version="1.0" encoding="iso-8859-1"?>
<!-- Generator: Adobe Illustrator 19.0.0, SVG Export Plug-In . SVG Version: 6.00 Build 0)  -->
<svg version="1.1" id="Capa_1" xmlns="http://www.w3.org/2000/svg" xmlns:xlink="http://www.w3.org/1999/xlink" x="0px" y="0px"
	 viewBox="0 0 496 496" style="enable-background:new 0 0 496 496;" xml:space="preserve">
<g>
	<g>
		<path d="M112,158.68V156H96v2.68c0,4.584,0.12,9.168,0.352,13.728l15.984-0.816C112.12,167.296,112,163,112,158.68z"/>
	</g>
</g>
<g>
	<g>
		<path d="M113.608,187.088l-15.896,1.816c4.576,40.296,18.624,79.68,40.616,113.88l13.456-8.656
			C131.112,261.976,117.92,224.96,113.608,187.088z"/>
	</g>
</g>
<g>
	<g>
		<path d="M294.888,77.696C281.032,87.056,264.816,92,248,92c-16.816,0-33.024-4.944-46.88-14.296l-8.952,13.264
			C208.68,102.112,227.984,108,248,108s39.32-5.888,55.84-17.04L294.888,77.696z"/>
	</g>
</g>
<g>
	<g>
		<path d="M72,308H56c0,30.872-25.128,56-56,56v16c30.872,0,56,25.128,56,56h16c0-30.872,25.128-56,56-56v-16
			C97.128,364,72,338.872,72,308z M64,403.16C57.12,389.8,46.2,378.88,32.84,372c13.36-6.88,24.28-17.8,31.16-31.16
			c6.88,13.36,17.8,24.28,31.16,31.16C81.8,378.88,70.88,389.8,64,403.16z"/>
	</g>
</g>
<g>
	<g>
		<path d="M440,100h-15.32c-15.152-37.688-52.24-64-94.264-64c-19.84,0-38.496,5.368-53.952,15.512
			c-17.112,11.264-39.808,11.264-56.928,0C204.088,41.368,185.432,36,165.584,36C109.568,36,64,81.568,64,137.584v21.096
			c0,57.36,16.4,113.168,47.416,161.416c16.688,25.96,28.944,54.304,36.432,84.24l8.704,34.832
			C159.608,451.44,170.576,460,183.216,460c13.72,0,25.16-9.848,27.184-23.416l17.944-119.664c1.48-9.8,9.744-16.92,19.656-16.92
			s18.176,7.12,19.648,16.92l17.944,119.664C287.624,450.152,299.064,460,312.784,460c12.64,0,23.608-8.56,26.664-20.832
			l8.712-34.832c7.488-29.944,19.752-58.288,36.44-84.24c18.232-28.368,31.568-60.048,39.368-92.928
			C423.96,227.448,424,227.72,424,228h16c0-30.872,25.128-56,56-56v-16C465.128,156,440,130.872,440,100z M371.136,311.44
			c-17.64,27.44-30.584,57.392-38.496,89.024l-8.72,34.832c-1.272,5.128-5.856,8.704-11.136,8.704c-5.736,0-10.512-4.12-11.36-9.792
			L283.48,314.544C280.824,296.84,265.896,284,248,284s-32.824,12.84-35.48,30.544l-17.944,119.664
			c-0.84,5.672-5.624,9.792-11.36,9.792c-5.28,0-9.864-3.576-11.152-8.704l-8.712-34.832c-7.904-31.64-20.856-61.592-38.496-89.024
			C95.512,265.784,80,212.96,80,158.68v-21.096C80,90.392,118.392,52,165.584,52c16.712,0,32.328,4.456,45.16,12.888
			C221.952,72.256,234.496,76,248,76c13.504,0,26.048-3.744,37.248-11.112C298.088,56.456,313.704,52,330.416,52
			c42.208,0,78.624,31.448,84.624,72.512l0.336,5.208C405.456,145.472,387.952,156,368,156v16c18.784,0,35.4,9.328,45.56,23.56
			C408.16,236.584,393.504,276.64,371.136,311.44z M432,195.16c-6.88-13.36-17.8-24.28-31.16-31.16
			c13.36-6.88,24.28-17.8,31.16-31.16c6.88,13.36,17.8,24.28,31.16,31.16C449.8,170.88,438.88,181.8,432,195.16z"/>
	</g>
</g>
<g>
</g>
<g>
</g>
<g>
</g>
<g>
</g>
<g>
</g>
<g>
</g>
<g>
</g>
<g>
</g>
<g>
</g>
<g>
</g>
<g>
</g>
<g>
</g>
<g>
</g>
<g>
</g>
<g>
</g>
</svg>
