<svg id="Capa_1" enable-background="new 0 0 283.462 283.462" height="512" viewBox="0 0 283.462 283.462" width="512" xmlns="http://www.w3.org/2000/svg"><path d="m167.558 198.641c-.574 0-1.148-.071-1.717-.213-2.414-.607-4.339-2.452-5.027-4.818-5.406-18.67-13.776-32.746-19.472-32.746s-14.066 14.08-19.472 32.746c-.688 2.366-2.613 4.211-5.027 4.818-2.419.617-4.998-.114-6.729-1.883-9.399-9.613-8.859-27.795-8.769-29.839-.005-5.008 1.114-11.462 3.32-18.969.868-2.95.285-6.122-1.598-8.712-.379-.517-.759-1.072-1.124-1.612-5.25-7.839-8.029-17.205-8.029-27.083v-4.572c0-16.555 17.67-20.933 27.012-20.933 9.518 0 16.47 4.287 20.411 7.588 3.941-3.296 10.898-7.588 20.411-7.588 9.342 0 27.012 4.377 27.012 20.933v4.572c0 9.878-2.774 19.244-8.029 27.088-.356.536-.74 1.086-1.133 1.622-1.868 2.575-2.452 5.748-1.584 8.693 2.205 7.512 3.324 13.966 3.324 19.187.085 1.831.626 20.013-8.773 29.625-1.318 1.347-3.144 2.096-5.007 2.096zm-26.216-47.262c13.596 0 22.73 21.449 27.074 34.709 3.149-6.312 3.599-15.375 3.448-18.965-.005-4.463-1.02-10.177-2.945-16.721-1.702-5.786-.598-11.965 3.021-16.954.322-.441.621-.877.911-1.299 4.206-6.284 6.431-13.829 6.431-21.819v-4.572c0-11.32-17.352-11.448-17.528-11.448-10.4 0-16.446 7.374-16.698 7.687-.906 1.129-2.224 1.646-3.737 1.783-1.446-.009-2.822-.669-3.713-1.807-.232-.294-6.279-7.664-16.679-7.664-.707.005-17.528.218-17.528 11.448v4.572c0 7.991 2.224 15.531 6.426 21.81.289.436.588.868.901 1.295 3.633 5.003 4.738 11.182 3.035 16.973-1.921 6.544-2.94 12.254-2.94 16.508-.157 3.761.294 12.856 3.443 19.173 4.348-13.259 13.482-34.709 27.078-34.709z"/><path d="m127.115 113.28c-2.618 0-4.742-2.12-4.742-4.742s2.125-4.742 4.742-4.742c3.637 0 8.584-5.089 10.409-7.559 1.555-2.096 4.524-2.551 6.63-.996 2.106 1.551 2.561 4.51 1.01 6.62-.853 1.166-8.649 11.419-18.049 11.419z"/><path d="m141.342 231.837c-49.685 0-90.104-40.419-90.104-90.104s40.419-90.103 90.104-90.103 90.104 40.419 90.104 90.104-40.419 90.103-90.104 90.103zm0-170.723c-44.454 0-80.619 36.165-80.619 80.619s36.165 80.619 80.619 80.619 80.619-36.165 80.619-80.619-36.164-80.619-80.619-80.619z"/><path d="m234.69 244.324c-.996 0-1.978-.313-2.798-.911-1.1-.806-1.807-2.049-1.925-3.41l-3.239-36.198c-.232-2.608 1.693-4.908 4.301-5.145 2.594-.266 4.913 1.688 5.145 4.301l2.76 30.811 29.426-6.563c2.551-.569 5.089 1.039 5.662 3.595.569 2.556-1.039 5.089-3.595 5.658l-34.7 7.744c-.345.08-.691.118-1.037.118z"/><path d="m141.731 283.462c-78.149 0-141.729-63.58-141.729-141.729 0-37.284 16.451-71.988 50.302-106.081 1.845-1.864 4.847-1.873 6.706-.028 1.859 1.85 1.868 4.847.024 6.706-31.992 32.233-47.547 64.747-47.547 99.404 0 72.923 59.326 132.249 132.244 132.249 27.292 0 53.422-8.166 75.569-23.612 2.148-1.489 5.103-.967 6.601 1.176 1.499 2.148.972 5.103-1.176 6.606-23.74 16.56-51.748 25.309-80.994 25.309z"/><path d="m234.69 244.324c-1.19 0-2.381-.446-3.301-1.337-1.878-1.821-1.925-4.828-.104-6.706 28.729-29.63 42.695-60.559 42.695-94.547 0-72.923-59.326-132.249-132.249-132.249-25.191 0-49.69 7.109-70.845 20.558-2.205 1.404-5.141.749-6.544-1.461-1.404-2.21-.749-5.141 1.461-6.544 22.677-14.417 48.935-22.038 75.928-22.038 78.149 0 141.729 63.58 141.729 141.734 0 36.573-14.839 69.655-45.37 101.149-.925.957-2.162 1.441-3.4 1.441z"/><path d="m55.976 80.083c-2.48 0-4.567-1.93-4.728-4.444l-2.006-31.498-30.778 2.727c-2.604.247-4.913-1.698-5.145-4.306-.228-2.608 1.698-4.913 4.306-5.141l35.624-3.154c1.271-.123 2.537.294 3.509 1.124.972.835 1.565 2.025 1.646 3.296l2.314 36.35c.166 2.613-1.816 4.866-4.434 5.036-.104.006-.204.01-.308.01z"/></svg>